<svg width="24" height="23" viewBox="0 0 24 23" fill="none" xmlns="http://www.w3.org/2000/svg">
<g clip-path="url(#clip0_41_180)">
<path d="M12 1.896C14.717 1.896 15.056 1.90548 16.122 1.95288C17.187 2.00029 17.912 2.15862 18.55 2.39374C19.21 2.63455 19.766 2.9607 20.322 3.48688C20.8305 3.96083 21.224 4.53413 21.475 5.16689C21.722 5.77082 21.89 6.45913 21.94 7.46884C21.987 8.4795 22 8.8009 22 11.3768C22 13.9528 21.99 14.2742 21.94 15.2848C21.89 16.2946 21.722 16.9819 21.475 17.5868C21.2247 18.2199 20.8311 18.7933 20.322 19.2668C19.822 19.7487 19.2173 20.1217 18.55 20.3599C17.913 20.5941 17.187 20.7534 16.122 20.8008C15.056 20.8454 14.717 20.8577 12 20.8577C9.283 20.8577 8.944 20.8482 7.878 20.8008C6.813 20.7534 6.088 20.5941 5.45 20.3599C4.78233 20.1224 4.17753 19.7493 3.678 19.2668C3.16941 18.7929 2.77593 18.2196 2.525 17.5868C2.277 16.9829 2.11 16.2946 2.06 15.2848C2.013 14.2742 2 13.9528 2 11.3768C2 8.8009 2.01 8.4795 2.06 7.46884C2.11 6.45818 2.277 5.77177 2.525 5.16689C2.77524 4.53374 3.1688 3.96028 3.678 3.48688C4.17767 3.00453 4.78243 2.63145 5.45 2.39374C6.088 2.15862 6.812 2.00029 7.878 1.95288C8.944 1.90832 9.283 1.896 12 1.896ZM12 6.63642C10.6739 6.63642 9.40215 7.13585 8.46447 8.02486C7.52678 8.91386 7 10.1196 7 11.3768C7 12.6341 7.52678 13.8398 8.46447 14.7288C9.40215 15.6178 10.6739 16.1173 12 16.1173C13.3261 16.1173 14.5979 15.6178 15.5355 14.7288C16.4732 13.8398 17 12.6341 17 11.3768C17 10.1196 16.4732 8.91386 15.5355 8.02486C14.5979 7.13585 13.3261 6.63642 12 6.63642ZM18.5 6.3994C18.5 6.08509 18.3683 5.78365 18.1339 5.5614C17.8995 5.33915 17.5815 5.21429 17.25 5.21429C16.9185 5.21429 16.6005 5.33915 16.3661 5.5614C16.1317 5.78365 16 6.08509 16 6.3994C16 6.71371 16.1317 7.01514 16.3661 7.23739C16.6005 7.45964 16.9185 7.5845 17.25 7.5845C17.5815 7.5845 17.8995 7.45964 18.1339 7.23739C18.3683 7.01514 18.5 6.71371 18.5 6.3994ZM12 8.53259C12.7956 8.53259 13.5587 8.83225 14.1213 9.36565C14.6839 9.89905 15 10.6225 15 11.3768C15 12.1312 14.6839 12.8546 14.1213 13.388C13.5587 13.9214 12.7956 14.2211 12 14.2211C11.2044 14.2211 10.4413 13.9214 9.87868 13.388C9.31607 12.8546 9 12.1312 9 11.3768C9 10.6225 9.31607 9.89905 9.87868 9.36565C10.4413 8.83225 11.2044 8.53259 12 8.53259Z" fill="white"/>
</g>
<defs>
<clipPath id="clip0_41_180">
<rect width="24" height="22.754" fill="white"/>
</clipPath>
</defs>
</svg>
