<svg width="22" height="17" viewBox="0 0 22 17" fill="none" xmlns="http://www.w3.org/2000/svg">
<path d="M21.1618 2.36238C20.3983 2.68254 19.5887 2.8928 18.7598 2.98622C19.6335 2.49078 20.2875 1.71106 20.5998 0.792351C19.7798 1.25502 18.8808 1.57926 17.9438 1.75466C17.3144 1.1162 16.4801 0.692767 15.5707 0.550196C14.6613 0.407625 13.7277 0.553899 12.9151 0.96628C12.1024 1.37866 11.4562 2.03404 11.0769 2.83053C10.6976 3.62703 10.6065 4.52001 10.8178 5.37065C9.1549 5.29163 7.52813 4.88193 6.04309 4.16816C4.55805 3.45438 3.24793 2.45249 2.19781 1.22752C1.8261 1.83283 1.63076 2.52092 1.63181 3.22134C1.63181 4.59606 2.36981 5.81055 3.4918 6.52162C2.82781 6.5018 2.17844 6.33179 1.59781 6.02577V6.07507C1.59801 6.99063 1.93218 7.87796 2.54365 8.5866C3.15513 9.29524 4.00629 9.78158 4.9528 9.96316C4.33642 10.1215 3.69011 10.1449 3.06281 10.0314C3.32967 10.8195 3.84981 11.5087 4.5504 12.0026C5.25098 12.4965 6.09693 12.7702 6.9698 12.7856C6.10228 13.4316 5.10898 13.9091 4.04668 14.1908C2.98439 14.4726 1.87393 14.5531 0.778809 14.4277C2.6905 15.5933 4.9159 16.2121 7.1888 16.2101C14.8818 16.2101 19.0888 10.1679 19.0888 4.92789C19.0888 4.75724 19.0838 4.58468 19.0758 4.41592C19.8946 3.85482 20.6014 3.15973 21.1628 2.36332L21.1618 2.36238Z" fill="white"/>
</svg>
