<?xml version="1.0" encoding="utf-8"?>
<!-- Generator: Adobe Illustrator 25.0.1, SVG Export Plug-In . SVG Version: 6.00 Build 0)  -->
<svg version="1.1" id="Layer_1" xmlns="http://www.w3.org/2000/svg" xmlns:xlink="http://www.w3.org/1999/xlink" x="0px" y="0px"
	 viewBox="0 0 1080 1080" style="enable-background:new 0 0 1080 1080;" xml:space="preserve">
<style type="text/css">
	.st0{fill:#1D1D1B;}
	.st1{fill:none;stroke:#FFFFFF;stroke-width:40.2674;stroke-miterlimit:10;}
	.st2{fill:#FFFFFF;}
</style>
<rect x="0.8" y="1.8" class="st0" width="1079" height="1078.5"/>
<g>
	<rect x="47.3" y="47.5" class="st1" width="987.1" height="986.1"/>
	<path class="st2" d="M522,207L408.4,397.5L294.9,207H153v380.9h113.4V384.7L380,587.9h56.7l113.8-203.2v203.2h13.2
		c19.9-44.5,55.9-69.7,100.2-82.2V207H522z"/>
	<path class="st2" d="M745.1,774.4c-46.3-0.9-85.7-12.2-85.1-74.3v-9.3c-0.6-62.6,38.7-73.4,85.1-74.3c39,0,71.2,8.8,81.8,46.2
		h116.2c-7.2-128.4-93.3-166.9-198.1-167.2c-27.4-0.3-54.7,3.2-81.3,10.2v82.2H563.6c-11.1,24.8-17.3,55.6-17.2,93.5v27.8
		C546,853.4,636,894.8,745.1,895.1c104.7,0,190.9-38.5,198.1-167.2H827.1C816.5,765.3,784.1,774.4,745.1,774.4z"/>
</g>
</svg>
