<svg width="56" height="42" viewBox="0 0 56 42" fill="none" xmlns="http://www.w3.org/2000/svg">
<path d="M26.2699 30.9362C26.2759 32.4119 25.9669 33.8715 25.3642 35.2149C24.7614 36.5584 23.8791 37.7539 22.7778 38.7197C20.4145 40.9046 17.3086 42.0786 14.1103 41.9959C10.0501 41.9959 6.84426 40.5642 4.49288 37.7008C2.14395 34.8536 0.888955 31.2427 0.958822 27.5326C0.958822 18.6499 3.36375 11.9655 8.17361 7.47931C12.9835 2.99314 18.3078 0.509476 24.1467 0.0283099V9.77193C21.2043 10.0894 18.4187 11.2753 16.1357 13.1825C14.9608 14.0731 13.9929 15.2139 13.3002 16.5245C12.6076 17.8351 12.207 19.2836 12.1267 20.768C13.0964 20.2894 14.1632 20.0471 15.2417 20.0604C18.7292 20.0604 21.4391 21.0628 23.3715 23.0677C24.3475 24.1175 25.1068 25.3543 25.6045 26.7056C26.1022 28.0568 26.3285 29.4951 26.2699 30.9362ZM55.9532 30.9362C55.9606 32.4121 55.6522 33.8721 55.0494 35.2158C54.4465 36.5595 53.5635 37.7549 52.4611 38.7197C50.0978 40.9046 46.9919 42.0786 43.7936 41.9959C39.7427 41.9959 36.5625 40.5642 34.253 37.7008C31.9323 34.8401 30.6942 31.2349 30.7608 27.5326C30.7608 18.6499 33.1402 11.9655 37.8988 7.47931C42.6574 2.99314 47.9748 0.500036 53.851 0V9.74362C50.915 10.0734 48.1392 11.2691 45.8679 13.1825C44.6842 14.0678 43.7075 15.2065 43.0074 16.5175C42.3073 17.8286 41.9008 19.2798 41.817 20.768C42.7842 20.2893 43.8487 20.0469 44.925 20.0604C48.4079 20.0604 51.1178 21.0628 53.0547 23.0677C54.0309 24.1172 54.7897 25.3541 55.2863 26.7055C55.7829 28.0569 56.0073 29.4955 55.9462 30.9362H55.9532Z" fill="#F3F5F7" fill-opacity="0.25"/>
</svg>
