<svg width="30" height="30" viewBox="0 0 30 30" fill="none" xmlns="http://www.w3.org/2000/svg">
<path d="M10 11.8749C9.13706 11.8749 8.4375 12.5744 8.4375 13.4374C8.4375 14.3003 9.13706 14.9999 10 14.9999C10.8629 14.9999 11.5625 14.3003 11.5625 13.4374C11.5625 12.5744 10.8629 11.8749 10 11.8749Z" fill="#A1A1A1"/>
<path d="M15 11.8749C14.1371 11.8749 13.4375 12.5744 13.4375 13.4374C13.4375 14.3003 14.1371 14.9999 15 14.9999C15.8629 14.9999 16.5625 14.3003 16.5625 13.4374C16.5625 12.5744 15.8629 11.8749 15 11.8749Z" fill="#A1A1A1"/>
<path d="M18.4375 13.4374C18.4375 12.5744 19.1371 11.8749 20 11.8749C20.8629 11.8749 21.5625 12.5744 21.5625 13.4374C21.5625 14.3003 20.8629 14.9999 20 14.9999C19.1371 14.9999 18.4375 14.3003 18.4375 13.4374Z" fill="#A1A1A1"/>
<path fill-rule="evenodd" clip-rule="evenodd" d="M20.1259 5.74085C16.7582 5.45365 13.3728 5.43699 10.0024 5.69101L9.76089 5.70922C6.54676 5.95146 4.0625 8.63 4.0625 11.8533V22.4999C4.0625 22.8297 4.23583 23.1353 4.51894 23.3045C4.80204 23.4738 5.15326 23.4818 5.4438 23.3257L10.3323 20.6985C10.5597 20.5763 10.8138 20.5124 11.0719 20.5124H22.2925C23.7076 20.5124 24.9203 19.5006 25.174 18.1084C25.6881 15.2869 25.7287 12.3994 25.2941 9.56455L25.1661 8.72914C24.933 7.20821 23.6887 6.04469 22.1556 5.91394L20.1259 5.74085ZM10.1433 7.56071C13.4138 7.31422 16.6987 7.33039 19.9666 7.60907L21.9963 7.78216C22.6667 7.83934 23.2108 8.34814 23.3127 9.01323L23.4408 9.84864C23.8438 12.4777 23.8061 15.1556 23.3293 17.7723C23.2381 18.2733 22.8017 18.6374 22.2925 18.6374H11.0719C10.504 18.6374 9.94495 18.7781 9.44469 19.0469L5.9375 20.9317V11.8533C5.9375 9.61087 7.66577 7.74744 9.90181 7.57891L10.1433 7.56071Z" fill="#A1A1A1"/>
</svg>
